<svg xmlns="http://www.w3.org/2000/svg" id="icon" viewBox="0 0 16 16"
  fill="none" stroke="currentColor" stroke-width="1.2" stroke-linecap="round"
  stroke-linejoin="round">
  <path d="M12.32 6.43 L14.30 6.89 A6.4 6.4 0 0 1 14.30 9.11
    L12.32 9.57 A4.6 4.6 0 0 1 11.52 10.96 L12.11 12.90
    A6.4 6.4 0 0 1 10.19 14.01 L8.80 12.53 A4.6 4.6 0 0 1 7.20 12.53
    L5.81 14.01 A6.4 6.4 0 0 1 3.89 12.90 L4.48 10.96
    A4.6 4.6 0 0 1 3.68 9.57 L1.70 9.11 A6.4 6.4 0 0 1 1.70 6.89
    L3.68 6.43 A4.6 4.6 0 0 1 4.48 5.04 L3.89 3.10
    A6.4 6.4 0 0 1 5.81 1.99 L7.20 3.47 A4.6 4.6 0 0 1 8.80 3.47
    L10.19 1.99 A6.4 6.4 0 0 1 12.11 3.10 L11.52 5.04
    A4.6 4.6 0 0 1 12.32 6.43 Z"></path>
  <circle cx="8" cy="8" r="2.2"></circle>
</svg>
